<?xml version="1.0" encoding="UTF-8" standalone="no"?>
<!-- Created with Inkscape (http://www.inkscape.org/) -->

<svg
   width="210mm"
   height="297mm"
   viewBox="0 0 210 297"
   version="1.1"
   id="svg5"
   inkscape:version="1.1.2 (08b2f3d93c, 2022-04-05)"
   sodipodi:docname="logo.svg"
   xmlns:inkscape="http://www.inkscape.org/namespaces/inkscape"
   xmlns:sodipodi="http://sodipodi.sourceforge.net/DTD/sodipodi-0.dtd"
   xmlns:xlink="http://www.w3.org/1999/xlink"
   xmlns="http://www.w3.org/2000/svg"
   xmlns:svg="http://www.w3.org/2000/svg">
  <sodipodi:namedview
     id="namedview7"
     pagecolor="#ffffff"
     bordercolor="#666666"
     borderopacity="1.0"
     inkscape:pageshadow="2"
     inkscape:pageopacity="0.0"
     inkscape:pagecheckerboard="0"
     inkscape:document-units="mm"
     showgrid="false"
     showguides="true"
     inkscape:guide-bbox="true"
     inkscape:zoom="0.33234019"
     inkscape:cx="-60.1793"
     inkscape:cy="523.55991"
     inkscape:window-width="1368"
     inkscape:window-height="655"
     inkscape:window-x="0"
     inkscape:window-y="27"
     inkscape:window-maximized="1"
     inkscape:current-layer="layer1" />
  <defs
     id="defs2">
    <linearGradient
       inkscape:collect="always"
       id="linearGradient585">
      <stop
         style="stop-color:#000080;stop-opacity:1;"
         offset="0"
         id="stop581" />
      <stop
         style="stop-color:#00ffff;stop-opacity:1"
         offset="1"
         id="stop583" />
    </linearGradient>
    <clipPath
       clipPathUnits="userSpaceOnUse"
       id="clipPath106618">
      <g
         inkscape:label="Clip"
         id="use106620"
         transform="translate(-2.895278e-5)">
        <text
           xml:space="preserve"
           style="font-style:normal;font-variant:normal;font-weight:normal;font-stretch:normal;font-size:171.584px;line-height:1.25;font-family:'Nimbus Roman';-inkscape-font-specification:'Nimbus Roman, ';fill:#ffffff;fill-opacity:1;stroke:none;stroke-width:1.78733"
           x="137.19444"
           y="238.42128"
           id="text106996"
           transform="matrix(0.22313084,0,0,0.24657088,-299.31668,9.3837832)"><tspan
             sodipodi:role="line"
             id="tspan106994"
             style="font-style:normal;font-variant:normal;font-weight:normal;font-stretch:normal;font-size:171.584px;font-family:'Nimbus Roman';-inkscape-font-specification:'Nimbus Roman, ';fill:#ffffff;fill-opacity:1;stroke-width:1.78733"
             x="137.19444"
             y="238.42128">F</tspan></text>
        <text
           xml:space="preserve"
           style="font-style:normal;font-weight:normal;font-size:94.73px;line-height:1.25;font-family:sans-serif;fill:#000000;fill-opacity:1;stroke:none;stroke-width:0.986773"
           x="401.0184"
           y="158.8017"
           id="text107002"
           transform="matrix(0.18869157,0,0,0.29157407,-299.31668,9.3837832)"><tspan
             sodipodi:role="line"
             id="tspan106998"
             style="font-style:normal;font-variant:normal;font-weight:normal;font-stretch:normal;font-size:94.73px;font-family:'Nimbus Roman';-inkscape-font-specification:'Nimbus Roman, ';fill:#ffffff;fill-opacity:1;stroke-width:0.986773"
             x="401.0184"
             y="158.8017">ROBERT FERRER</tspan><tspan
             sodipodi:role="line"
             style="font-size:94.73px;stroke-width:0.986773"
             x="401.0184"
             y="284.48621"
             id="tspan107000" /></text>
        <text
           xml:space="preserve"
           style="font-style:normal;font-weight:normal;font-size:39.6478px;line-height:1.25;font-family:sans-serif;letter-spacing:13.5147px;fill:#000000;fill-opacity:1;stroke:none;stroke-width:0.412999"
           x="323.78537"
           y="243.54976"
           id="text107006"
           transform="matrix(0.22948391,0,0,0.23974477,-299.31668,9.3837832)"><tspan
             sodipodi:role="line"
             style="font-style:normal;font-variant:normal;font-weight:normal;font-stretch:normal;font-size:39.6478px;font-family:'Nimbus Roman';-inkscape-font-specification:'Nimbus Roman, ';fill:#ffffff;fill-opacity:1;stroke-width:0.412999"
             x="323.78537"
             y="243.54976"
             id="tspan107004">SYSTEMS DEVELOPER</tspan></text>
      </g>
    </clipPath>
    <linearGradient
       inkscape:collect="always"
       xlink:href="#linearGradient585"
       id="linearGradient809"
       gradientUnits="userSpaceOnUse"
       x1="230.28986"
       y1="14.049483"
       x2="158.83537"
       y2="50.624168" />
    <linearGradient
       inkscape:collect="always"
       xlink:href="#linearGradient585"
       id="linearGradient811"
       gradientUnits="userSpaceOnUse"
       x1="230.28986"
       y1="14.049483"
       x2="158.83537"
       y2="50.624168" />
  </defs>
  <g
     inkscape:label="Layer 1"
     inkscape:groupmode="layer"
     id="layer1">
    <rect
       style="fill:#000000;fill-opacity:1;stroke-width:0.165347"
       id="rect431"
       width="213.38736"
       height="299.30905"
       x="-2.6965387"
       y="-2.2602415" />
    <g
       id="g1248"
       transform="translate(-1.6531315,-14.080655)"
       inkscape:export-filename="/home/robert/Videos/logo.png"
       inkscape:export-xdpi="96"
       inkscape:export-ydpi="96">
      <g
         id="g1229">
        <g
           id="g1211">
          <g
             id="g417"
             style="fill:#ffffff;fill-opacity:1"
             transform="translate(4.844844,18.52981)">
            <text
               xml:space="preserve"
               style="font-style:normal;font-weight:normal;font-size:30.8779px;line-height:1.25;font-family:sans-serif;fill:#ffffff;fill-opacity:1;stroke:none;stroke-width:0.321646"
               x="82.404655"
               y="47.347019"
               id="text41741"
               transform="scale(0.80445508,1.2430775)"
               inkscape:export-filename="/home/robert/Documents/logo.png"
               inkscape:export-xdpi="96"
               inkscape:export-ydpi="96"><tspan
                 sodipodi:role="line"
                 id="tspan41739"
                 style="font-style:normal;font-variant:normal;font-weight:normal;font-stretch:normal;font-size:30.8779px;font-family:'Nimbus Roman';-inkscape-font-specification:'Nimbus Roman, ';fill:#ffffff;fill-opacity:1;stroke-width:0.321646"
                 x="82.404655"
                 y="47.347019">Robert Ferrer</tspan><tspan
                 sodipodi:role="line"
                 style="font-size:30.8779px;fill:#ffffff;fill-opacity:1;stroke-width:0.321646"
                 x="82.404655"
                 y="88.314751"
                 id="tspan48255" /></text>
            <text
               xml:space="preserve"
               style="font-style:normal;font-weight:normal;font-size:10.8855px;line-height:1.25;font-family:sans-serif;letter-spacing:3.7105px;fill:#ffffff;fill-opacity:1;stroke:none;stroke-width:0.11339"
               x="85.732338"
               y="57.435551"
               id="text86627"
               transform="scale(0.772014,1.2953133)"
               inkscape:export-filename="/home/robert/Documents/logo.png"
               inkscape:export-xdpi="96"
               inkscape:export-ydpi="96"><tspan
                 sodipodi:role="line"
                 style="font-style:normal;font-variant:normal;font-weight:normal;font-stretch:normal;font-size:10.8855px;font-family:'Nimbus Roman';-inkscape-font-specification:'Nimbus Roman, ';fill:#ffffff;fill-opacity:1;stroke-width:0.11339"
                 x="85.732338"
                 y="57.435551"
                 id="tspan86625">SYSTEMS DEVELOPER</tspan></text>
          </g>
        </g>
        <g
           id="g3006"
           transform="matrix(0.20213552,0,0,0.20213567,10.884228,45.015045)"
           inkscape:export-filename="/home/robert/Pictures/logomini.png"
           inkscape:export-xdpi="96"
           inkscape:export-ydpi="96">
          <g
             id="g2996">
            <g
               id="g2987">
              <path
                 d="m 255.569,84.452376 c -0.002,-4.83 -1.035,-9.098 -3.124,-12.761 -2.052,-3.602 -5.125,-6.621 -9.247,-9.008 -34.025,-19.619 -68.083,-39.178 -102.097,-58.8169999 -9.17,-5.294 -18.061,-5.101 -27.163,0.2689999 -13.543,7.987 -81.348,46.834 -101.553,58.537 -8.321,4.817 -12.37,12.189 -12.372,21.771 C 0,123.89838 0.013,163.35238 0,202.80838 c 0,4.724 0.991,8.909 2.988,12.517 2.053,3.711 5.169,6.813 9.386,9.254 20.206,11.703 88.02,50.547 101.56,58.536 9.106,5.373 17.997,5.565 27.17,0.269 34.015,-19.64 68.075,-39.198 102.105,-58.817 4.217,-2.44 7.333,-5.544 9.386,-9.252 1.994,-3.608 2.987,-7.793 2.987,-12.518 0,0 0,-78.889 -0.013,-118.345004"
                 fill="#a179dc"
                 fill-rule="nonzero"
                 id="path2-3"
                 style="fill:#02a9f7;fill-opacity:1" />
              <path
                 d="m 128.182,143.24138 -125.194,72.084 c 2.053,3.711 5.169,6.813 9.386,9.254 20.206,11.703 88.02,50.547 101.56,58.536 9.106,5.373 17.997,5.565 27.17,0.269 34.015,-19.64 68.075,-39.198 102.105,-58.817 4.217,-2.44 7.333,-5.544 9.386,-9.252 l -124.413,-72.074"
                 fill="#280068"
                 fill-rule="nonzero"
                 id="path4"
                 style="fill:#01303f;fill-opacity:1" />
              <path
                 d="m 255.569,84.452375 c -0.002,-4.829999 -1.035,-9.098 -3.124,-12.760999 l -124.263,71.550004 124.413,72.074 c 1.994,-3.60801 2.985,-7.79301 2.987,-12.518 0,0 0,-78.889 -0.013,-118.345005"
                 fill="#390091"
                 fill-rule="nonzero"
                 id="path6"
                 style="fill:#02577a;fill-opacity:1;stroke-width:1" />
              <text
                 xml:space="preserve"
                 style="font-style:normal;font-variant:normal;font-weight:normal;font-stretch:normal;font-size:193.878px;line-height:1.25;font-family:'Nimbus Roman';-inkscape-font-specification:'Nimbus Roman, ';fill:#ffffff;fill-opacity:1;stroke:none;stroke-width:2.01957"
                 x="76.67952"
                 y="203.44539"
                 id="text1707-6"
                 transform="scale(0.97530213,1.0253233)"
                 inkscape:export-filename="/home/robert/Documents/logo.png"
                 inkscape:export-xdpi="96"
                 inkscape:export-ydpi="96"><tspan
                   sodipodi:role="line"
                   id="tspan1705-7"
                   style="font-style:normal;font-variant:normal;font-weight:normal;font-stretch:normal;font-size:193.878px;font-family:'Nimbus Roman';-inkscape-font-specification:'Nimbus Roman, ';fill:#ffffff;fill-opacity:1;stroke-width:2.01957"
                   x="76.67952"
                   y="203.44539">F</tspan></text>
              <path
                 id="path1709-5"
                 style="fill:#ffffff;fill-opacity:1;stroke-width:0.817694"
                 d="m 126.14137,25.325846 c -3.6639,0.0474 -7.32142,1.192329 -11.02132,3.400567 -11.01024,6.568784 -66.134361,38.517978 -82.560705,48.142933 -6.764807,3.961694 -10.057444,10.023474 -10.059081,17.904016 -0.0091,32.449178 8.36e-4,64.897718 -0.0091,97.347658 0.0016,3.88519 0.805871,7.32759 2.42939,10.29493 1.669066,3.05206 4.20133,5.60316 7.629687,7.61073 16.427142,9.62495 71.559249,41.5709 82.567049,48.14131 7.40302,4.41895 14.63119,4.57726 22.08869,0.22182 27.65363,-16.15265 55.34424,-32.23731 83.01007,-48.37266 3.42836,-2.00672 5.96061,-4.55952 7.62966,-7.60909 1.62109,-2.96738 2.4278,-6.40889 2.42942,-10.29489 0,0 -5.4e-4,-64.88165 -0.0113,-97.331627 -0.001,-3.972363 -0.84046,-7.48312 -2.53879,-10.495665 -1.66833,-2.962404 -4.16747,-5.445194 -7.5186,-7.40835 -27.6617,-16.135438 -55.35082,-32.220962 -83.00365,-48.372759 -3.72754,-2.176985 -7.39711,-3.226391 -11.06102,-3.178902 z m -0.0113,9.514218 c 3.35026,-0.04352 6.7078,0.915205 10.11624,2.905823 25.28561,14.76914 50.60427,29.479105 75.89805,44.233181 3.06424,1.795104 5.34842,4.065014 6.87384,6.773842 1.55294,2.754668 2.31982,5.963816 2.32145,9.596153 0.0102,29.672077 0.0102,88.999597 0.0102,88.999597 -0.002,3.55335 -0.73751,6.69971 -2.21982,9.41305 -1.52617,2.78853 -3.84218,5.1236 -6.97705,6.95855 -25.29751,14.75408 -50.61805,29.46172 -75.9044,44.23157 -6.81912,3.98274 -13.42829,3.83822 -20.19757,-0.20242 -10.0656,-6.00793 -60.47712,-35.21839 -75.498018,-44.01945 -3.134857,-1.83567 -5.452467,-4.16939 -6.97864,-6.96015 -1.484546,-2.71334 -2.218175,-5.86046 -2.219808,-9.41301 0.0094,-29.67211 -1.51e-4,-59.34275 0.0094,-89.014105 0.0016,-7.205971 3.011142,-12.749044 9.196883,-16.371597 15.020153,-8.801014 65.425423,-38.016283 75.493143,-44.022743 3.38315,-2.019197 6.72628,-3.064791 10.07654,-3.108219 z" />
            </g>
          </g>
        </g>
      </g>
    </g>
  </g>
</svg>
